<svg version="1.1" xmlns="http://www.w3.org/2000/svg" width="28" height="28" viewBox="0 0 28 28">
<title>danger</title>
<path d="M14 2.625c-3.038 0-5.895 1.183-8.043 3.332s-3.332 5.005-3.332 8.043c0 3.038 1.183 5.895 3.332 8.043s5.005 3.332 8.043 3.332c3.038 0 5.895-1.183 8.043-3.332s3.332-5.005 3.332-8.043c0-3.038-1.183-5.895-3.332-8.043s-5.005-3.332-8.043-3.332zM14 0v0c7.732 0 14 6.268 14 14s-6.268 14-14 14c-7.732 0-14-6.268-14-14s6.268-14 14-14zM12.25 19.25h3.5v3.5h-3.5zM12.25 5.25h3.5v10.5h-3.5z"></path>
</svg>
