<svg version="1.1" xmlns="http://www.w3.org/2000/svg" width="28" height="28" viewBox="0 0 28 28">
<title>info</title>
<path d="M12.25 8.313c0-0.722 0.591-1.313 1.313-1.313h0.875c0.722 0 1.313 0.591 1.313 1.313v0.875c0 0.722-0.591 1.313-1.313 1.313h-0.875c-0.722 0-1.313-0.591-1.313-1.313v-0.875z"></path>
<path d="M17.5 21h-7v-1.75h1.75v-5.25h-1.75v-1.75h5.25v7h1.75z"></path>
<path d="M14 0c-7.732 0-14 6.268-14 14s6.268 14 14 14 14-6.268 14-14-6.268-14-14-14zM14 25.375c-6.282 0-11.375-5.093-11.375-11.375s5.093-11.375 11.375-11.375 11.375 5.093 11.375 11.375-5.093 11.375-11.375 11.375z"></path>
</svg>
