<svg version="1.1" xmlns="http://www.w3.org/2000/svg" width="28" height="28" viewBox="0 0 28 28">
<title>search</title>
<path d="M27.132 23.827l-6.632-5.641c-0.686-0.617-1.419-0.9-2.011-0.873 1.566-1.834 2.511-4.213 2.511-6.813 0-5.799-4.701-10.5-10.5-10.5s-10.5 4.701-10.5 10.5 4.701 10.5 10.5 10.5c2.6 0 4.98-0.946 6.813-2.511-0.027 0.592 0.256 1.326 0.873 2.011l5.641 6.632c0.966 1.073 2.544 1.164 3.506 0.201s0.872-2.54-0.201-3.506zM10.5 17.5c-3.866 0-7-3.134-7-7s3.134-7 7-7 7 3.134 7 7-3.134 7-7 7z"></path>
</svg>
