<svg version="1.1" xmlns="http://www.w3.org/2000/svg" width="28" height="28" viewBox="0 0 28 28">
<title>times</title>
<path d="M27.745 22.495c-0-0-0-0-0-0l-8.494-8.494 8.494-8.494c0-0 0-0 0-0 0.091-0.091 0.158-0.198 0.2-0.312 0.116-0.311 0.050-0.675-0.2-0.925l-4.013-4.013c-0.25-0.25-0.614-0.316-0.925-0.2-0.114 0.042-0.221 0.109-0.312 0.2 0 0-0 0-0 0l-8.494 8.494-8.494-8.494c-0-0-0-0-0-0-0.091-0.091-0.198-0.158-0.312-0.2-0.311-0.116-0.675-0.050-0.925 0.2l-4.013 4.013c-0.25 0.25-0.316 0.614-0.2 0.925 0.042 0.114 0.109 0.221 0.2 0.312 0 0 0 0 0 0l8.494 8.494-8.494 8.494c-0 0-0 0-0 0-0.091 0.091-0.157 0.198-0.2 0.312-0.116 0.311-0.050 0.675 0.2 0.925l4.013 4.013c0.25 0.25 0.614 0.316 0.925 0.2 0.114-0.042 0.221-0.109 0.312-0.2 0-0 0-0 0-0l8.494-8.494 8.494 8.494c0 0 0 0 0 0 0.092 0.091 0.198 0.158 0.312 0.2 0.311 0.116 0.675 0.050 0.925-0.2l4.013-4.013c0.25-0.25 0.316-0.614 0.2-0.925-0.042-0.114-0.109-0.221-0.2-0.312z"></path>
</svg>
