<svg version="1.1" xmlns="http://www.w3.org/2000/svg" width="28" height="28" viewBox="0 0 28 28">
<title>warning</title>
<path d="M14 2.537l11.733 23.385h-23.467l11.733-23.385zM14 0c-0.603 0-1.207 0.407-1.665 1.221l-11.951 23.819c-0.916 1.628-0.137 2.96 1.731 2.96h23.77c1.868 0 2.647-1.332 1.731-2.96h0l-11.951-23.819c-0.458-0.814-1.061-1.221-1.665-1.221v0z"></path>
<path d="M15.75 22.75c0 0.966-0.784 1.75-1.75 1.75s-1.75-0.784-1.75-1.75c0-0.966 0.784-1.75 1.75-1.75s1.75 0.784 1.75 1.75z"></path>
<path d="M14 19.25c-0.966 0-1.75-0.784-1.75-1.75v-5.25c0-0.966 0.784-1.75 1.75-1.75s1.75 0.784 1.75 1.75v5.25c0 0.966-0.784 1.75-1.75 1.75z"></path>
</svg>
