<svg width="2500" height="1709" viewBox="0 0 256 175" xmlns="http://www.w3.org/2000/svg"><path d="M224.943 79.496c.091-1.497.227-2.981.227-4.498C225.17 33.578 191.074 0 149.01 0c-30.33 0-56.443 17.499-68.692 42.768a35.285 35.285 0 0 0-21.478-7.265c-19.404 0-35.133 15.49-35.133 34.596 0 3.59.55 7.057 1.587 10.31C10.17 89.27 0 105.473 0 124.06c0 27.791 22.664 50.332 50.785 50.76l.596.032.208.007.207-.007H202.83c.92.045 1.82.136 2.754.136 27.843 0 50.416-22.223 50.416-49.644 0-20.668-12.826-38.368-31.057-45.847zM68.725 136.581c-5.114-4.628-8.296-10.24-9.573-16.85a37.066 37.066 0 0 1-.635-6.961c-.006-9.424 3.422-17.215 10.292-23.35 6.863-6.145 15.593-9.223 26.196-9.217 10.882 0 21.141 4.07 30.202 12.216 2.262 2.03 4.446 4.317 6.552 6.85l11.652 13.702c2.016 2.761 4.181 5.145 6.416 7.155 5.982 5.373 12.476 8.062 17.96 8.062 4.666 0 8.56-1.426 11.698-4.29 2.735-2.606 4.278-5.723 4.621-9.333l.07-1.58c0-1.57-.22-3.053-.673-4.446-.745-2.32-2.113-4.408-4.096-6.268-3.098-2.955-7-4.414-11.73-4.414-5.814 0-11.563 1.958-17.863 8.062l-10.317-12.132-1.258-1.407c9.023-8.84 18.03-12.158 30.157-12.158 10.745 0 19.443 3.053 26.099 9.145l.149.123c6.765 6.079 10.155 13.94 10.155 23.585 0 2.385-.214 4.666-.635 6.837-1.27 6.526-4.458 12.087-9.553 16.695-5.002 4.608-11.108 7.492-18.315 8.639a48.23 48.23 0 0 1-7.582.577c-11.128-.007-21.42-3.986-30.274-11.932a60.05 60.05 0 0 1-6.85-7.323l-11.652-13.604c-1.97-2.728-4.103-5.088-6.32-7.084-5.968-5.36-12.547-8.043-18.185-8.043-1.75 0-3.39.207-4.92.616-2.54.68-4.763 1.938-6.681 3.766-2.346 2.235-3.817 4.81-4.4 7.718a14.828 14.828 0 0 0-.292 3.02c0 4.135 1.49 7.674 4.472 10.61l.226.214c3.202 2.93 7.136 4.388 11.802 4.388 5.866 0 11.64-1.97 17.927-8.127l10.266 11.983 1.134 1.367c-9.372 8.944-18.283 12.327-29.942 12.32-10.74 0-19.502-3.045-26.3-9.131z" fill="#4679A4" fill-rule="evenodd"/></svg>