<!-- Generated by IcoMoon.io -->
<svg version="1.1" xmlns="http://www.w3.org/2000/svg" width="28" height="28" viewBox="0 0 28 28">
<title>attachment</title>
<path d="M18.206 8.943l-1.776-1.775-8.882 8.88c-1.471 1.471-1.471 3.857 0 5.328s3.857 1.471 5.329 0l10.658-10.656c2.453-2.452 2.453-6.427 0-8.879-2.452-2.453-6.429-2.453-8.881 0l-11.19 11.188c-0.008 0.008-0.017 0.016-0.024 0.023-3.421 3.421-3.421 8.965 0 12.384 3.419 3.419 8.965 3.419 12.386 0 0.007-0.007 0.014-0.016 0.022-0.024l0.001 0.001 7.638-7.637-1.777-1.775-7.638 7.636c-0.008 0.007-0.015 0.016-0.023 0.023-2.436 2.435-6.398 2.435-8.834 0s-2.435-6.396 0-8.831c0.008-0.008 0.017-0.016 0.024-0.023l-0.001-0.002 11.191-11.188c1.469-1.469 3.859-1.469 5.329 0s1.469 3.86 0 5.328l-10.658 10.656c-0.49 0.49-1.287 0.49-1.777 0s-0.489-1.286 0-1.775l8.881-8.881z"></path>
</svg>
