<!-- Generated by IcoMoon.io -->
<svg version="1.1" xmlns="http://www.w3.org/2000/svg" width="28" height="28" viewBox="0 0 28 28">
<title>calendar</title>
<path d="M8.75 10.5h3.5v3.5h-3.5zM14 10.5h3.5v3.5h-3.5zM19.25 10.5h3.5v3.5h-3.5zM3.5 21h3.5v3.5h-3.5zM8.75 21h3.5v3.5h-3.5zM14 21h3.5v3.5h-3.5zM8.75 15.75h3.5v3.5h-3.5zM14 15.75h3.5v3.5h-3.5zM19.25 15.75h3.5v3.5h-3.5zM3.5 15.75h3.5v3.5h-3.5zM22.75 0v1.75h-3.5v-1.75h-12.25v1.75h-3.5v-1.75h-3.5v28h26.25v-28h-3.5zM24.5 26.25h-22.75v-19.25h22.75v19.25z"></path>
</svg>
