<!-- Generated by IcoMoon.io -->
<svg version="1.1" xmlns="http://www.w3.org/2000/svg" width="28" height="28" viewBox="0 0 28 28">
<title>cart</title>
<path d="M10.5 25.375c0 1.45-1.175 2.625-2.625 2.625s-2.625-1.175-2.625-2.625c0-1.45 1.175-2.625 2.625-2.625s2.625 1.175 2.625 2.625z"></path>
<path d="M28 25.375c0 1.45-1.175 2.625-2.625 2.625s-2.625-1.175-2.625-2.625c0-1.45 1.175-2.625 2.625-2.625s2.625 1.175 2.625 2.625z"></path>
<path d="M28 14v-10.5h-21c0-0.966-0.784-1.75-1.75-1.75h-5.25v1.75h3.5l1.315 11.267c-0.801 0.641-1.315 1.627-1.315 2.733 0 1.933 1.567 3.5 3.5 3.5h21v-1.75h-21c-0.966 0-1.75-0.784-1.75-1.75 0-0.006 0-0.012 0-0.018l22.75-3.482z"></path>
</svg>
