<!-- Generated by IcoMoon.io -->
<svg version="1.1" xmlns="http://www.w3.org/2000/svg" width="28" height="28" viewBox="0 0 28 28">
<title>dark</title>
<path d="M14 7c-3.866 0-7 3.134-7 7s3.134 7 7 7 7-3.134 7-7-3.134-7-7-7zM14 18.375v-8.75c2.412 0 4.375 1.963 4.375 4.375s-1.963 4.375-4.375 4.375zM14 22.75c0.966 0 1.75 0.784 1.75 1.75v1.75c0 0.966-0.784 1.75-1.75 1.75s-1.75-0.784-1.75-1.75v-1.75c0-0.966 0.784-1.75 1.75-1.75zM14 5.25c-0.966 0-1.75-0.784-1.75-1.75v-1.75c0-0.966 0.784-1.75 1.75-1.75s1.75 0.784 1.75 1.75v1.75c0 0.966-0.784 1.75-1.75 1.75zM26.25 12.25c0.966 0 1.75 0.784 1.75 1.75s-0.784 1.75-1.75 1.75h-1.75c-0.966 0-1.75-0.784-1.75-1.75s0.784-1.75 1.75-1.75h1.75zM5.25 14c0 0.966-0.784 1.75-1.75 1.75h-1.75c-0.966 0-1.75-0.784-1.75-1.75s0.784-1.75 1.75-1.75h1.75c0.966 0 1.75 0.784 1.75 1.75zM22.662 20.187l1.237 1.237c0.683 0.683 0.683 1.791 0 2.475s-1.792 0.683-2.475 0l-1.237-1.237c-0.683-0.683-0.683-1.791 0-2.475s1.792-0.683 2.475 0zM5.338 7.813l-1.237-1.237c-0.683-0.683-0.683-1.791 0-2.475s1.791-0.683 2.475 0l1.237 1.237c0.683 0.683 0.683 1.791 0 2.475s-1.791 0.683-2.475 0zM22.662 7.813c-0.683 0.683-1.791 0.683-2.475 0s-0.683-1.791 0-2.475l1.237-1.237c0.683-0.683 1.791-0.683 2.475 0s0.683 1.791 0 2.475l-1.237 1.237zM5.338 20.187c0.683-0.683 1.791-0.683 2.475 0s0.683 1.792 0 2.475l-1.237 1.237c-0.683 0.683-1.791 0.683-2.475 0s-0.683-1.792 0-2.475l1.237-1.237z"></path>
</svg>
