<!-- Generated by IcoMoon.io -->
<svg version="1.1" xmlns="http://www.w3.org/2000/svg" width="28" height="28" viewBox="0 0 28 28">
<title>earth</title>
<path d="M14 0c-7.732 0-14 6.268-14 14s6.268 14 14 14 14-6.268 14-14-6.268-14-14-14zM14 26.25c-1.722 0-3.36-0.356-4.846-0.997l6.375-7.172c0.142-0.16 0.221-0.367 0.221-0.581v-2.625c0-0.483-0.392-0.875-0.875-0.875-3.090 0-6.349-3.212-6.381-3.244-0.164-0.164-0.387-0.256-0.619-0.256h-3.5c-0.483 0-0.875 0.392-0.875 0.875v5.25c0 0.331 0.187 0.634 0.484 0.783l3.016 1.508v5.138c-3.173-2.214-5.25-5.891-5.25-10.053 0-1.879 0.424-3.659 1.18-5.25h3.195c0.232 0 0.455-0.092 0.619-0.256l3.5-3.5c0.164-0.164 0.256-0.387 0.256-0.619v-2.117c1.109-0.33 2.284-0.508 3.5-0.508 1.925 0 3.746 0.445 5.367 1.236-0.113 0.096-0.224 0.196-0.329 0.302-0.992 0.992-1.538 2.31-1.538 3.712s0.546 2.721 1.538 3.712c0.996 0.996 2.33 1.538 3.709 1.538 0.087 0 0.173-0.002 0.26-0.006 0.378 1.416 1.060 5.104-0.23 10.181-0.012 0.048-0.019 0.095-0.023 0.143-2.224 2.272-5.324 3.682-8.754 3.682z"></path>
</svg>
