<!-- Generated by IcoMoon.io -->
<svg version="1.1" xmlns="http://www.w3.org/2000/svg" width="28" height="28" viewBox="0 0 28 28">
<title>envelope</title>
<path d="M25.375 3.5h-22.75c-1.444 0-2.625 1.181-2.625 2.625v17.5c0 1.444 1.181 2.625 2.625 2.625h22.75c1.444 0 2.625-1.181 2.625-2.625v-17.5c0-1.444-1.181-2.625-2.625-2.625zM10.903 15.049l-7.403 5.767v-13.717l7.403 7.95zM4.823 7h18.354l-9.177 6.891-9.177-6.891zM11.191 15.359l2.809 3.016 2.808-3.016 5.757 7.391h-17.132l5.757-7.391zM17.097 15.049l7.403-7.95v13.717l-7.403-5.767z"></path>
</svg>
