<!-- Generated by IcoMoon.io -->
<svg version="1.1" xmlns="http://www.w3.org/2000/svg" width="28" height="28" viewBox="0 0 28 28">
<title>file</title>
<path d="M25.096 6.264c-0.607-0.828-1.454-1.796-2.384-2.726s-1.898-1.776-2.726-2.384c-1.41-1.034-2.094-1.154-2.486-1.154h-13.563c-1.206 0-2.188 0.981-2.188 2.188v23.625c0 1.206 0.981 2.188 2.188 2.188h20.125c1.206 0 2.188-0.981 2.188-2.188v-17.063c0-0.392-0.12-1.076-1.154-2.486zM21.475 4.775c0.839 0.839 1.498 1.597 1.985 2.225h-4.21v-4.209c0.628 0.486 1.386 1.145 2.225 1.984zM24.5 25.813c0 0.237-0.2 0.438-0.438 0.438h-20.125c-0.237 0-0.438-0.2-0.438-0.438v-23.625c0-0.237 0.2-0.438 0.438-0.438 0 0 13.561-0 13.563 0v6.125c0 0.483 0.392 0.875 0.875 0.875h6.125v17.063z"></path>
<path d="M20.125 22.75h-12.25c-0.483 0-0.875-0.392-0.875-0.875s0.392-0.875 0.875-0.875h12.25c0.483 0 0.875 0.392 0.875 0.875s-0.392 0.875-0.875 0.875z"></path>
<path d="M20.125 19.25h-12.25c-0.483 0-0.875-0.392-0.875-0.875s0.392-0.875 0.875-0.875h12.25c0.483 0 0.875 0.392 0.875 0.875s-0.392 0.875-0.875 0.875z"></path>
<path d="M20.125 15.75h-12.25c-0.483 0-0.875-0.392-0.875-0.875s0.392-0.875 0.875-0.875h12.25c0.483 0 0.875 0.392 0.875 0.875s-0.392 0.875-0.875 0.875z"></path>
</svg>
