<!-- Generated by IcoMoon.io -->
<svg version="1.1" xmlns="http://www.w3.org/2000/svg" width="28" height="28" viewBox="0 0 28 28">
<title>key</title>
<path d="M27.402 8.593l-2.765-2.765c-0.678-0.678-1.787-1.787-2.465-2.465l-2.765-2.765c-0.678-0.678-1.885-0.798-2.683-0.266l-7.559 5.039c-0.798 0.532-1.1 1.669-0.671 2.526l1.927 3.855c0.059 0.118 0.127 0.243 0.202 0.374l-9.749 9.749-0.875 6.125h5.25v-1.75h3.5v-3.5h3.5v-3.5h3.5v-1.946c0.175 0.104 0.343 0.197 0.497 0.275l3.855 1.927c0.858 0.429 1.994 0.127 2.526-0.671l5.039-7.559c0.532-0.798 0.412-2.005-0.266-2.683zM4.119 23.369l-1.237-1.237 8.52-8.519 1.237 1.237-8.52 8.519zM25.075 11.587l-1.237 1.237c-0.34 0.34-0.897 0.34-1.237 0l-7.425-7.425c-0.34-0.34-0.34-0.897 0-1.237l1.237-1.237c0.34-0.34 0.897-0.34 1.237 0l7.425 7.425c0.34 0.34 0.34 0.897 0 1.237z"></path>
</svg>
