<!-- Generated by IcoMoon.io -->
<svg version="1.1" xmlns="http://www.w3.org/2000/svg" width="28" height="28" viewBox="0 0 28 28">
<title>link</title>
<path d="M12.038 17.384c-0.364 0-0.728-0.139-1.005-0.416-2.601-2.601-2.601-6.834 0-9.436l5.25-5.25c1.26-1.26 2.936-1.954 4.718-1.954s3.458 0.694 4.718 1.954c2.601 2.601 2.601 6.834 0 9.436l-2.4 2.4c-0.555 0.555-1.456 0.555-2.011 0s-0.555-1.456 0-2.011l2.4-2.4c1.493-1.493 1.493-3.921 0-5.414-0.723-0.723-1.684-1.121-2.707-1.121s-1.984 0.398-2.707 1.121l-5.25 5.25c-1.493 1.493-1.493 3.921 0 5.414 0.555 0.555 0.555 1.456 0 2.011-0.278 0.278-0.642 0.416-1.005 0.416z"></path>
<path d="M7 27.672c-1.782 0-3.458-0.694-4.718-1.954-2.601-2.601-2.601-6.834 0-9.436l2.4-2.4c0.555-0.555 1.456-0.555 2.011 0s0.555 1.456 0 2.011l-2.4 2.4c-1.493 1.493-1.493 3.921 0 5.414 0.723 0.723 1.684 1.121 2.707 1.121s1.984-0.398 2.707-1.121l5.25-5.25c1.493-1.493 1.493-3.921 0-5.414-0.555-0.555-0.555-1.456 0-2.011s1.456-0.555 2.011 0c2.601 2.601 2.601 6.834 0 9.435l-5.25 5.25c-1.26 1.26-2.936 1.954-4.718 1.954z"></path>
</svg>
