<!-- Generated by IcoMoon.io -->
<svg version="1.1" xmlns="http://www.w3.org/2000/svg" width="28" height="28" viewBox="0 0 28 28">
<title>magic</title>
<path d="M7 5.25l-3.5-3.5h-1.75v1.75l3.5 3.5zM8.75 0h1.75v3.5h-1.75zM15.75 8.75h3.5v1.75h-3.5zM17.5 3.5v-1.75h-1.75l-3.5 3.5 1.75 1.75zM0 8.75h3.5v1.75h-3.5zM8.75 15.75h1.75v3.5h-1.75zM1.75 15.75v1.75h1.75l3.5-3.5-1.75-1.75zM27.617 24.117l-17.394-17.394c-0.51-0.51-1.346-0.51-1.856 0l-1.644 1.644c-0.51 0.51-0.51 1.346 0 1.856l17.394 17.394c0.51 0.51 1.346 0.51 1.856 0l1.644-1.644c0.51-0.51 0.51-1.346 0-1.856zM13.125 14.875l-5.25-5.25 1.75-1.75 5.25 5.25-1.75 1.75z"></path>
</svg>
