<svg width="330" height="352" viewBox="0 0 330 352" fill="none" xmlns="http://www.w3.org/2000/svg">
<path fill-rule="evenodd" clip-rule="evenodd" d="M91.7532 37.1942C94.1088 45.9855 97.7989 54.0628 102.547 61.2666C100.227 67.4813 98.8103 74.1361 98.4559 81.0716L98.4101 81L83.9101 172L84.0568 171.832C82.9495 177.222 82.3679 182.804 82.3679 188.521C82.3679 208.201 89.2586 226.271 100.759 240.451L163.749 350.471L160.957 187.569C155.432 186.07 151.368 181.02 151.368 175.021C151.368 167.841 157.188 162.021 164.368 162.021C171.548 162.021 177.368 167.841 177.368 175.021C177.368 180.694 173.735 185.518 168.668 187.293L165.868 350.67L228.958 240.475C238.991 228.113 245.52 212.79 247.032 196.021C281.493 196.087 309.41 224.044 309.41 258.521C309.41 293.039 281.428 321.021 246.91 321.021C227.728 321.021 210.564 312.379 199.099 298.777L188.675 316.958C203.596 331.828 224.179 341.021 246.91 341.021C292.473 341.021 329.41 304.085 329.41 258.521C329.41 212.958 292.473 176.021 246.91 176.021C246.829 176.021 246.748 176.021 246.667 176.021L246.54 176.022L246.427 176.022C246.296 175.157 246.151 174.297 245.993 173.441L231.41 84L231.366 84.0671C231.312 75.9642 229.809 68.2054 227.103 61.037C231.778 53.8913 235.415 45.8922 237.746 37.1942C241.113 24.6271 241.389 11.96 239.04 0C219.399 0.804515 200.851 8.65262 186.645 21.6686C179.822 19.305 172.495 18.0211 164.868 18.0211C157.177 18.0211 149.791 19.3267 142.919 21.7284C128.705 8.67666 110.13 0.805746 90.4584 0C88.1096 11.96 88.3859 24.6271 91.7532 37.1942ZM107.074 266.918C108.852 266.71 110.626 266.545 112.395 266.421L125.716 289.545C119.234 288.949 112.586 288.885 105.835 289.399C76.909 294.123 53.1633 312.154 40.1867 336.428L40.1229 336.435C37.9578 344.19 31.2921 350.252 22.8006 351.242C11.5915 352.548 1.44573 344.521 0.13932 333.311C-0.363286 328.999 0.515677 324.844 2.42585 321.289L2.40623 321.261L2.5378 321.084C3.60803 319.145 4.98686 317.39 6.61638 315.892C27.6804 290.534 60.0994 272.392 97.9617 267.98C99.5907 267.79 101.216 267.627 102.836 267.491C104.239 267.274 105.652 267.083 107.074 266.918Z" fill="white"/>
</svg>
