<svg height="512pt" viewBox="0 0 512 512" width="512pt" xmlns="http://www.w3.org/2000/svg"><path d="m455.996094 34.789062 34.789062-34.789062 21.214844 21.214844-34.789062 34.789062zm0 0" fill="#ff637b"/><path d="m501.394531 10.601562 10.605469 10.605469-34.789062 34.789063-10.605469-10.605469zm0 0" fill="#e63950"/><path d="m193.019531 163.488281-71.371093-6.480469-58.003907 58.003907 63.636719 63.640625 52.050781-32.804688zm0 0" fill="#ff637b"/><path d="m348.511719 318.980469-82.355469 13.691406-32.808594 52.046875 63.640625 63.636719 58.003907-58.003907zm0 0" fill="#e63950"/><path d="m233.347656 384.71875-42.425781 42.425781-106.066406-106.066406 42.425781-42.425781h42.429688l63.636718 63.636718zm0 0" fill="#61729b"/><path d="m233.347656 384.71875-42.425781 42.425781-53.03125-53.035156 63.636719-63.636719 31.820312 31.816406zm0 0" fill="#47568c"/><path d="m362.324219 310.894531s-5.300781 3.179688-13.789063 8.273438c-33.09375 18.667969-113.0625 64.277343-115.1875 65.546875l-106.066406-106.0625c3.605469-6.152344 47.519531-83.160156 65.761719-114.976563 4.457031-8.273437 7.425781-13.363281 7.851562-13.789062 21-39.242188 54.429688-73.097657 90.492188-94.738281l50.910156 8.488281 106.066406 106.066406 8.484375 50.910156c-21.636718 36.0625-55.277344 69.28125-94.523437 90.28125zm0 0" fill="#e0f4ff"/><path d="m362.324219 310.894531s-5.300781 3.179688-13.789063 8.273438c-33.09375 18.667969-113.0625 64.277343-115.1875 65.546875l-53.03125-53.03125 215.015625-215.015625 53.03125 53.03125 8.484375 50.914062c-21.636718 36.0625-55.277344 69.28125-94.523437 90.28125zm0 0" fill="#bbdcff"/><path d="m127.28125 278.652344c-.292969.515625-.308594.539062 0 0zm0 0"/><g fill="#ffda2d"><path d="m0 490.78125 21.214844-21.214844 21.210937 21.214844-21.210937 21.210938zm0 0"/><path d="m42.425781 448.355469 63.640625-63.640625 21.210938 21.210937-63.636719 63.640625zm0 0"/><path d="m21.21875 384.714844 21.214844 21.210937-21.214844 21.214844-21.2109375-21.214844zm0 0"/><path d="m63.644531 342.289062 21.214844 21.210938-21.214844 21.214844-21.210937-21.214844zm0 0"/></g><path d="m106.070312 469.566406 21.214844 21.210938-21.214844 21.214844-21.210937-21.214844zm0 0" fill="#fdbf00"/><path d="m148.496094 427.140625 21.214844 21.210937-21.214844 21.214844-21.210938-21.214844zm0 0" fill="#fdbf00"/><path d="m63.640625 469.574219-10.605469-10.609375 63.636719-63.636719 10.609375 10.605469zm0 0" fill="#fdbf00"/><path d="m21.214844 512-10.609375-10.605469 21.214843-21.214843 10.605469 10.605468zm0 0" fill="#fdbf00"/><path d="m456.847656 220.613281-165.460937-165.464843c53.242187-32.03125 118.15625-43.058594 181.796875-27.363282l8.695312 2.332032 2.335938 8.699218c15.695312 63.640625 4.667968 128.550782-27.367188 181.796875zm0 0" fill="#ff637b"/><path d="m456.847656 220.613281-82.730468-82.730469 107.765624-107.765624 2.332032 8.699218c15.695312 63.640625 4.667968 128.550782-27.367188 181.796875zm0 0" fill="#e63950"/><path d="m352.90625 159.09375c-17.609375-17.605469-46.035156-17.605469-63.640625 0l-42.425781 42.425781c-17.609375 17.609375-17.609375 46.035157 0 63.640625 17.605468 17.609375 46.03125 17.609375 63.636718 0l42.429688-42.425781c17.605469-17.609375 17.605469-46.03125 0-63.640625zm0 0" fill="#61729b"/><path d="m352.90625 222.734375-42.429688 42.425781c-17.605468 17.609375-46.03125 17.609375-63.636718 0l106.066406-106.066406c17.605469 17.609375 17.605469 46.03125 0 63.640625zm0 0" fill="#47568c"/><path d="m331.691406 201.519531-10.605468 10.609375-21.214844-21.214844 10.605468-10.605468c5.941407-5.941406 15.273438-5.941406 21.214844 0s5.941406 15.273437 0 21.210937zm0 0" fill="#76e2f8"/><path d="m299.871094 233.339844-10.605469 10.609375c-5.941406 5.9375-15.273437 5.9375-21.214844 0-5.941406-5.941407-5.941406-15.273438 0-21.214844l10.609375-10.605469zm0 0" fill="#76e2f8"/><path d="m331.691406 201.519531-10.605468 10.609375-10.609376-10.609375 21.214844-21.210937c5.941406 5.941406 5.941406 15.273437 0 21.210937zm0 0" fill="#25d9f8"/><path d="m289.265625 222.734375 10.605469 10.609375-10.605469 10.605469c-5.941406 5.941406-15.273437 5.941406-21.214844 0zm0 0" fill="#25d9f8"/></svg>