<?xml version="1.0" encoding="utf-8"?>
<!-- Generator: Adobe Illustrator 22.0.1, SVG Export Plug-In . SVG Version: 6.00 Build 0)  -->
<svg version="1.1" id="Layer_1" xmlns="http://www.w3.org/2000/svg" xmlns:xlink="http://www.w3.org/1999/xlink" x="0px" y="0px"
	 viewBox="0 0 390.5 390" style="enable-background:new 0 0 390.5 390;" xml:space="preserve">
<style type="text/css">
	.st0{fill:#61729B;}
	.st1{fill:#47568C;}
	.st2{fill:#615AD3;}
	.st3{fill:#737EE6;}
	.st4{fill:#979FEF;}
</style>
<path class="st0" d="M4.5,364l60-60l21,21l-60,60L4.5,364z"/>
<path class="st0" d="M124.5,244l240-240l21,21l-240,240L124.5,244z"/>
<path class="st1" d="M25.5,385L15,374.5l60-60L85.5,325L25.5,385z"/>
<path class="st1" d="M135,254.5l240-240L385.5,25l-240,240L135,254.5z"/>
<path class="st2" d="M315,239.5h75v90h-75V239.5z"/>
<path class="st3" d="M60-0.5h90v75H60V-0.5z"/>
<path class="st3" d="M255,239.5v90H60v-210h90v120H255z"/>
<path class="st2" d="M255,239.5v90H60l90-90H255z"/>
<path class="st0" d="M75,359.5v30H0v-75h30v45H75z"/>
<path class="st0" d="M390-0.5v75h-30v-45h-45v-30H390z"/>
<path class="st4" d="M0,59.5v90h240v240h90v-330H0z"/>
<path class="st3" d="M330,59.5v330h-90v-240L330,59.5z"/>
<g>
	<path class="st1" d="M30,359.5h45v30H0L30,359.5z"/>
	<path class="st1" d="M390-0.5v75h-30v-45L390-0.5z"/>
</g>
</svg>
