<?xml version="1.0" encoding="UTF-8" standalone="no"?>
<!DOCTYPE svg PUBLIC "-//W3C//DTD SVG 1.1//EN" "http://www.w3.org/Graphics/SVG/1.1/DTD/svg11.dtd">
<svg width="100%" height="100%" viewBox="0 0 512 512" version="1.1" xmlns="http://www.w3.org/2000/svg" xmlns:xlink="http://www.w3.org/1999/xlink" xml:space="preserve" xmlns:serif="http://www.serif.com/" style="fill-rule:evenodd;clip-rule:evenodd;stroke-linejoin:round;stroke-miterlimit:2;">
    <g transform="matrix(1.81722,0,0,0.947919,-313.741,121.858)">
        <rect x="312.765" y="166.957" width="101.287" height="200.348" style="fill:rgb(154,186,219);"/>
    </g>
    <g transform="matrix(1.79747,0,0,0.92163,-287.181,129.758)">
        <rect x="200.348" y="166.957" width="101.287" height="200.348" style="fill:rgb(187,220,255);"/>
    </g>
    <g transform="matrix(1.7944,0,0,0.994932,-296.042,90.8196)">
        <path d="M306.686,156.166C306.858,231.691 307.124,351.49 307.295,422.971L425.183,422.971L425.183,154.087L306.686,156.166ZM402.922,309.493L355.187,309.493L306.993,309.053L306.891,264.972L402.921,264.972L402.921,309.493L402.922,309.493ZM402.922,376.276L307.147,376.127L307.044,332.29L402.921,331.754L402.921,376.276L402.922,376.276ZM402.922,242.711L306.84,242.711L306.737,198.189L402.921,198.189L402.921,242.711L402.922,242.711Z" style="fill:rgb(187,220,255);fill-rule:nonzero;"/>
    </g>
    <g transform="matrix(1.7944,0,0,0.994932,-296.042,90.8196)">
        <path d="M189.217,155.087L189.217,421.829L307.2,422.971L307.2,155.826L189.217,155.087ZM307.2,309.493L211.479,309.493L211.479,264.972L307.2,264.972L307.2,309.493ZM307.2,376.276L211.479,376.276L211.479,331.754L307.2,331.754L307.2,376.276ZM307.2,242.711L211.479,242.711L211.479,198.189L307.2,198.189L307.2,242.711Z" style="fill:rgb(224,244,255);fill-rule:nonzero;"/>
    </g>
    <g transform="matrix(4.71486,0,0,5.63699,-437.516,-78.0118)">
        <path d="M185.424,39.689C185.424,40.041 185.403,40.394 185.369,40.74L185.341,41C184.739,46.144 180.605,50.257 175.321,51.069L175.321,51.222L120.335,51.222C114.159,51.222 109.083,46.743 108.418,40.98C108.404,40.88 108.391,40.787 108.384,40.687C108.356,40.354 108.328,40.028 108.328,39.689C108.328,33.319 113.702,28.155 120.335,28.155C121.457,28.155 122.544,28.314 123.576,28.587C123.666,22.292 128.998,17.213 135.569,17.213C139.363,17.213 142.742,18.918 144.944,21.56C147.555,17.121 152.513,14.119 158.197,14.119C166.396,14.119 173.078,20.348 173.403,28.155L173.417,28.155C180.051,28.155 185.424,33.319 185.424,39.689Z" style="fill:rgb(110,118,205);fill-rule:nonzero;"/>
    </g>
    <g transform="matrix(4.71486,0,0,5.63699,-437.516,-78.0118)">
        <path d="M175.321,51.06L175.321,51.225L120.333,51.225C114.055,51.225 108.911,46.402 108.383,40.261C108.354,40.604 108.331,40.949 108.331,41.3C108.331,47.928 113.704,53.302 120.333,53.302L175.321,53.302L175.321,53.137C181.044,52.223 185.422,47.279 185.422,41.3C185.422,40.967 185.399,40.64 185.372,40.314C184.877,45.795 180.692,50.202 175.321,51.06Z" style="fill:rgb(110,118,205);fill-rule:nonzero;"/>
    </g>
    <g transform="matrix(4.71486,0,0,5.63699,-437.516,-78.0118)">
        <path d="M185.341,41.773C184.739,46.529 180.605,50.33 175.321,51.081L175.321,51.222L120.335,51.222C114.159,51.222 109.083,47.082 108.418,41.755C109.118,36.465 114.187,32.362 120.335,32.362C121.457,32.362 122.544,32.51 123.576,32.762C123.666,26.942 128.998,22.249 135.569,22.249C139.363,22.249 142.742,23.824 144.944,26.266C147.555,22.163 152.513,19.389 158.197,19.389C166.396,19.389 173.078,25.147 173.403,32.362L173.417,32.362C179.573,32.362 184.648,36.477 185.341,41.773Z" style="fill:rgb(148,154,218);fill-rule:nonzero;"/>
    </g>
    <g transform="matrix(1.7944,0,0,1.41115,-296.042,-4.24986)">
        <path d="M307.2,111.304L284.939,144.696L307.2,178.087L425.183,178.087L425.183,111.304L307.2,111.304Z" style="fill:rgb(44,59,115);fill-rule:nonzero;"/>
    </g>
    <g transform="matrix(1.7944,0,0,1.41115,-296.042,-4.24986)">
        <rect x="189.217" y="111.304" width="117.983" height="66.783" style="fill:rgb(71,86,140);"/>
    </g>
    <g transform="matrix(0.292432,0,0,0.487232,65.8715,140.772)">
        <rect x="61" y="301" width="150" height="90" style="fill:rgb(90,203,141);fill-rule:nonzero;"/>
    </g>
    <g transform="matrix(0.292432,0,0,0.487232,65.8715,207.685)">
        <rect x="61" y="301" width="150" height="90" style="fill:rgb(90,203,141);fill-rule:nonzero;"/>
    </g>
    <g transform="matrix(0.292432,0,0,0.487232,65.8715,275.027)">
        <rect x="61" y="301" width="150" height="90" style="fill:rgb(90,203,141);fill-rule:nonzero;"/>
    </g>
    <g transform="matrix(7.41667,0,0,7.41667,-743.725,-160.482)">
        <path d="M128.682,34.302L128.682,52.495L124.7,52.495L134.507,62.302L144.316,52.495L140.333,52.495L140.333,34.302L128.682,34.302Z" style="fill:rgb(90,203,141);fill-rule:nonzero;"/>
    </g>
    <g transform="matrix(7.41667,0,0,7.41667,-743.725,-160.482)">
        <path d="M134.48,34.167L134.543,52.495L134.507,62.302L144.316,52.495L140.333,52.495L140.333,34.302L134.48,34.167Z" style="fill:rgb(84,185,127);fill-rule:nonzero;"/>
    </g>
</svg>
