<?xml version="1.0" encoding="utf-8"?>
<!-- Generator: Adobe Illustrator 22.0.1, SVG Export Plug-In . SVG Version: 6.00 Build 0)  -->
<svg version="1.1" id="Layer_1" xmlns="http://www.w3.org/2000/svg" xmlns:xlink="http://www.w3.org/1999/xlink" x="0px" y="0px"
	 viewBox="0 0 512 512" style="enable-background:new 0 0 512 512;" xml:space="preserve">
<style type="text/css">
	.st0{fill:#767ECB;}
	.st1{fill:#4650B9;}
	.st2{fill:#61729B;}
	.st3{fill:#47568C;}
	.st4{fill:#E0F4FF;}
	.st5{fill:#BBDCFF;}
	.st6{fill:#5ACB8D;}
	.st7{fill:#0DB257;}
	.st8{fill:#76E2F8;}
	.st9{fill:#25D9F8;}
</style>
<path class="st0" d="M456,34.8L490.8,0L512,21.2L477.2,56L456,34.8z"/>
<path class="st1" d="M501.4,10.6L512,21.2L477.2,56l-10.6-10.6L501.4,10.6z"/>
<path class="st0" d="M193,163.5l-71.4-6.5l-58,58l63.6,63.6l52.1-32.8L193,163.5z"/>
<path class="st1" d="M348.5,319l-82.4,13.7l-32.8,52l63.6,63.6l58-58L348.5,319z"/>
<path class="st2" d="M233.3,384.7l-42.4,42.4l-106-106l42.4-42.4h42.4l63.6,63.6L233.3,384.7L233.3,384.7z"/>
<path class="st3" d="M233.3,384.7l-42.4,42.4l-53-53l63.6-63.6l31.8,31.8V384.7z"/>
<path class="st4" d="M362.3,310.9c0,0-5.3,3.2-13.8,8.3c-33.1,18.7-113.1,64.3-115.2,65.5l-106-106c3.6-6.2,47.5-83.2,65.8-115
	c4.5-8.3,7.4-13.4,7.9-13.8c21-39.2,54.4-73.1,90.5-94.7l50.9,8.5l106.1,106.1l8.5,50.9C435.2,256.7,401.6,289.9,362.3,310.9z"/>
<path class="st5" d="M362.3,310.9c0,0-5.3,3.2-13.8,8.3c-33.1,18.7-113.1,64.3-115.2,65.5l-53-53l215-215l53,53l8.5,50.9
	C435.2,256.7,401.6,289.9,362.3,310.9z"/>
<path d="M127.3,278.7C127,279.2,127,279.2,127.3,278.7z"/>
<g>
	<path class="st6" d="M0,490.8l21.2-21.2l21.2,21.2L21.2,512L0,490.8z"/>
	<path class="st6" d="M42.4,448.4l63.6-63.6l21.2,21.2l-63.6,63.6L42.4,448.4z"/>
	<path class="st6" d="M21.2,384.7l21.2,21.2l-21.2,21.2L0,405.9L21.2,384.7z"/>
	<path class="st6" d="M63.6,342.3l21.2,21.2l-21.2,21.2l-21.2-21.2L63.6,342.3z"/>
</g>
<path class="st7" d="M106.1,469.6l21.2,21.2L106.1,512l-21.2-21.2L106.1,469.6z"/>
<path class="st7" d="M148.5,427.1l21.2,21.2l-21.2,21.2l-21.2-21.2L148.5,427.1z"/>
<path class="st7" d="M63.6,469.6L53,459l63.6-63.6l10.6,10.6L63.6,469.6z"/>
<path class="st7" d="M21.2,512l-10.6-10.6l21.2-21.2l10.6,10.6L21.2,512z"/>
<path class="st0" d="M456.8,220.6L291.4,55.1c53.2-32,118.2-43.1,181.8-27.4l8.7,2.3l2.3,8.7C499.9,102.5,488.9,167.4,456.8,220.6z"
	/>
<path class="st1" d="M456.8,220.6l-82.7-82.7L481.9,30.1l2.3,8.7C499.9,102.5,488.9,167.4,456.8,220.6z"/>
<path class="st2" d="M352.9,159.1c-17.6-17.6-46-17.6-63.6,0l-42.4,42.4c-17.6,17.6-17.6,46,0,63.6s46,17.6,63.6,0l42.4-42.4
	C370.5,205.1,370.5,176.7,352.9,159.1z"/>
<path class="st3" d="M352.9,222.7l-42.4,42.4c-17.6,17.6-46,17.6-63.6,0L353,159C370.5,176.7,370.5,205.1,352.9,222.7z"/>
<path class="st8" d="M331.7,201.5l-10.6,10.6l-21.2-21.2l10.6-10.6c5.9-5.9,15.3-5.9,21.2,0S337.6,195.6,331.7,201.5z"/>
<path class="st8" d="M299.9,233.3l-10.6,10.6c-5.9,5.9-15.3,5.9-21.2,0c-5.9-5.9-5.9-15.3,0-21.2l10.6-10.6L299.9,233.3z"/>
<path class="st9" d="M331.7,201.5l-10.6,10.6l-10.6-10.6l21.2-21.2C337.6,186.2,337.6,195.6,331.7,201.5z"/>
<path class="st9" d="M289.3,222.7l10.6,10.6l-10.6,10.6c-5.9,5.9-15.3,5.9-21.2,0L289.3,222.7z"/>
<polygon class="st0" points="21.2,20.7 85.6,20.7 106.1,0.3 106.1,0 0,0 0,106.1 0.3,106.1 21.2,85.2 "/>
<polygon class="st1" points="490.8,491.3 426.4,491.3 405.9,511.7 405.9,512 512,512 512,405.9 511.7,405.9 490.8,426.8 "/>
</svg>
