<?xml version="1.0" encoding="UTF-8" standalone="no"?>
<!DOCTYPE svg PUBLIC "-//W3C//DTD SVG 1.1//EN" "http://www.w3.org/Graphics/SVG/1.1/DTD/svg11.dtd">
<svg width="100%" height="100%" viewBox="0 0 650 650" version="1.1" xmlns="http://www.w3.org/2000/svg" xmlns:xlink="http://www.w3.org/1999/xlink" xml:space="preserve" xmlns:serif="http://www.serif.com/" style="fill-rule:evenodd;clip-rule:evenodd;stroke-linejoin:round;stroke-miterlimit:2;">
    <g transform="matrix(1,0,0,1,3,33)">
        <g transform="matrix(2,0,0,2,-1086.83,-182)">
            <path d="M648.337,381.659L667.006,381.659C673.884,352.835 705,338.096 705,338.096C666.351,345.63 648.337,381.659 648.337,381.659Z" style="fill:white;"/>
        </g>
        <g transform="matrix(2,0,0,2,-1086.83,-182)">
            <path d="M711.99,335.646C748.673,335.646 773.238,311.737 773.238,311.737C735.245,314.684 710.137,335.646 711.99,335.646Z" style="fill:white;"/>
        </g>
        <g transform="matrix(2,0,0,2,-1086.83,-182)">
            <path d="M731.642,338.096C731.642,338.096 747.363,350.713 794.201,348.748C794.201,348.748 763.74,332.031 731.642,338.096Z" style="fill:white;"/>
        </g>
        <g transform="matrix(2,0,0,2,-1086.83,-182)">
            <path d="M762.921,330.733C762.921,330.733 800.424,338.594 829.574,320.58C829.574,320.58 782.721,318.012 762.921,330.733Z" style="fill:white;"/>
        </g>
        <g transform="matrix(2,0,0,2,-1086.83,-182)">
            <path d="M806.647,265.554C785.03,293.395 782.082,316.977 782.082,316.977C806.647,298.308 806.647,265.554 806.647,265.554Z" style="fill:white;"/>
        </g>
        <g transform="matrix(2,0,0,2,-1086.83,-182)">
            <path d="M794.201,315.339C821.386,310.754 840.383,291.266 840.383,291.266C812.215,291.266 794.201,315.339 794.201,315.339Z" style="fill:white;"/>
        </g>
        <g transform="matrix(2,0,0,2,-1086.83,-182)">
            <path d="M813.198,287.499C840.383,279.966 854.139,263.917 854.139,263.917C831.539,263.917 813.198,287.499 813.198,287.499Z" style="fill:white;"/>
        </g>
        <g transform="matrix(2,0,0,2,-1086.83,-182)">
            <path d="M808.94,231.491C806.647,253.763 817.292,270.14 817.292,270.14C821.058,249.505 808.94,231.491 808.94,231.491Z" style="fill:white;"/>
        </g>
        <g transform="matrix(2,0,0,2,-1086.83,-182)">
            <path d="M829.574,262.607C848.898,259.659 864.62,233.129 864.62,233.129C846.606,236.076 829.574,262.607 829.574,262.607Z" style="fill:white;"/>
        </g>
        <g transform="matrix(2,0,0,2,-1086.83,-182)">
            <path d="M824.252,256.383C831.212,242.627 826.463,207.499 826.463,207.499C816.391,224.94 824.252,256.383 824.252,256.383Z" style="fill:white;"/>
        </g>
        <g transform="matrix(2,0,0,2,-1086.83,-182)">
            <path d="M860.608,203.323C844.886,211.921 835.552,244.101 835.552,244.101C851.028,234.275 860.608,203.323 860.608,203.323Z" style="fill:white;"/>
        </g>
        <g transform="matrix(2,0,0,2,-1086.83,-182)">
            <path d="M856.923,169.669C839.359,187.233 835.552,218.799 835.552,218.799C847.097,222.238 856.923,169.669 856.923,169.669Z" style="fill:white;"/>
        </g>
        <g transform="matrix(2,0,0,2,-1086.83,-182)">
            <path d="M833.668,204.551C836.207,185.391 817.292,157.386 817.292,157.386C817.292,182.443 833.668,204.551 833.668,204.551Z" style="fill:white;"/>
        </g>
        <g transform="matrix(2,0,0,2,-1086.83,-182)">
            <path d="M846.237,139.454C835.306,154.93 838.008,183.425 838.008,183.425C850.782,172.862 846.237,139.454 846.237,139.454Z" style="fill:white;"/>
        </g>
        <g transform="matrix(2,0,0,2,-1086.83,-182)">
            <path d="M782.082,125.206C803.781,141.419 828.044,159.106 828.044,159.106C813.568,125.463 782.082,125.206 782.082,125.206Z" style="fill:white;"/>
        </g>
        <g transform="matrix(2,0,0,2,-1086.83,-182)">
            <path d="M823.515,95.729C814.917,125.698 832.113,150.017 832.113,150.017C834.815,125.698 823.515,95.729 823.515,95.729Z" style="fill:white;"/>
        </g>
        <g transform="matrix(2,0,0,2,-1086.83,-182)">
            <path d="M759.891,92.044C788.591,110.631 817.292,132.085 817.292,132.085C806.647,92.044 759.891,92.044 759.891,92.044Z" style="fill:white;"/>
        </g>
        <g transform="matrix(2,0,0,2,-1086.83,-182)">
            <path d="M760.49,381.659L741.821,381.659C734.943,352.835 703.827,338.096 703.827,338.096C742.476,345.63 760.49,381.659 760.49,381.659Z" style="fill:white;"/>
        </g>
        <g transform="matrix(2,0,0,2,-1086.83,-182)">
            <path d="M696.837,335.646C660.154,335.646 635.589,311.737 635.589,311.737C673.582,314.684 698.69,335.646 696.837,335.646Z" style="fill:white;"/>
        </g>
        <g transform="matrix(2,0,0,2,-1086.83,-182)">
            <path d="M677.185,338.096C677.185,338.096 661.464,350.713 614.626,348.748C614.626,348.748 645.087,332.031 677.185,338.096Z" style="fill:white;"/>
        </g>
        <g transform="matrix(2,0,0,2,-1086.83,-182)">
            <path d="M645.906,330.733C645.906,330.733 608.403,338.594 579.253,320.58C579.253,320.58 626.106,318.012 645.906,330.733Z" style="fill:white;"/>
        </g>
        <g transform="matrix(2,0,0,2,-1086.83,-182)">
            <path d="M602.18,265.554C623.797,293.395 626.745,316.977 626.745,316.977C602.18,298.308 602.18,265.554 602.18,265.554Z" style="fill:white;"/>
        </g>
        <g transform="matrix(2,0,0,2,-1086.83,-182)">
            <path d="M614.626,315.339C587.441,310.754 568.444,291.266 568.444,291.266C596.612,291.266 614.626,315.339 614.626,315.339Z" style="fill:white;"/>
        </g>
        <g transform="matrix(2,0,0,2,-1086.83,-182)">
            <path d="M595.629,287.499C568.444,279.966 554.688,263.917 554.688,263.917C577.287,263.917 595.629,287.499 595.629,287.499Z" style="fill:white;"/>
        </g>
        <g transform="matrix(2,0,0,2,-1086.83,-182)">
            <path d="M599.887,231.491C602.18,253.763 591.535,270.14 591.535,270.14C587.769,249.505 599.887,231.491 599.887,231.491Z" style="fill:white;"/>
        </g>
        <g transform="matrix(2,0,0,2,-1086.83,-182)">
            <path d="M579.253,262.607C559.928,259.659 544.207,233.129 544.207,233.129C562.221,236.076 579.253,262.607 579.253,262.607Z" style="fill:white;"/>
        </g>
        <g transform="matrix(2,0,0,2,-1086.83,-182)">
            <path d="M584.575,256.383C577.615,242.627 582.364,207.499 582.364,207.499C592.436,224.94 584.575,256.383 584.575,256.383Z" style="fill:white;"/>
        </g>
        <g transform="matrix(2,0,0,2,-1086.83,-182)">
            <path d="M548.219,203.323C563.941,211.921 573.275,244.101 573.275,244.101C557.799,234.275 548.219,203.323 548.219,203.323Z" style="fill:white;"/>
        </g>
        <g transform="matrix(2,0,0,2,-1086.83,-182)">
            <path d="M551.904,169.669C569.468,187.233 573.275,218.799 573.275,218.799C561.73,222.238 551.904,169.669 551.904,169.669Z" style="fill:white;"/>
        </g>
        <g transform="matrix(2,0,0,2,-1086.83,-182)">
            <path d="M575.159,204.551C572.62,185.391 591.535,157.386 591.535,157.386C591.535,182.443 575.159,204.551 575.159,204.551Z" style="fill:white;"/>
        </g>
        <g transform="matrix(2,0,0,2,-1086.83,-182)">
            <path d="M562.59,139.454C573.521,154.93 570.819,183.425 570.819,183.425C558.045,172.862 562.59,139.454 562.59,139.454Z" style="fill:white;"/>
        </g>
        <g transform="matrix(2,0,0,2,-1086.83,-182)">
            <path d="M626.745,125.206C605.046,141.419 580.782,159.106 580.782,159.106C595.259,125.463 626.745,125.206 626.745,125.206Z" style="fill:white;"/>
        </g>
        <g transform="matrix(2,0,0,2,-1086.83,-182)">
            <path d="M585.312,95.729C593.91,125.698 576.714,150.017 576.714,150.017C574.012,125.698 585.312,95.729 585.312,95.729Z" style="fill:white;"/>
        </g>
        <g transform="matrix(2,0,0,2,-1086.83,-182)">
            <path d="M648.935,92.044C620.235,110.631 591.535,132.085 591.535,132.085C602.18,92.044 648.935,92.044 648.935,92.044Z" style="fill:white;"/>
        </g>
    </g>
    <g transform="matrix(4.2938,0,0,4.2938,256.103,56.5479)">
        <path d="M3.639,8.736C11.592,6.253 14.637,4.745 16,3.991C17.363,4.745 20.408,6.297 28.361,8.736C28.361,9.623 28.861,36.452 16,36.452C3.139,36.452 3.639,9.623 3.639,8.736ZM16,40C32.633,40.044 31.997,7.273 31.997,6.164C21.68,2.927 17.772,0.976 16,0C14.228,0.976 10.32,2.927 0.003,6.164C0.003,7.273 -0.633,40.044 16,40Z" style="fill:white;fill-rule:nonzero;"/>
    </g>
    <g transform="matrix(4.2938,0,0,4.2938,256.103,56.5479)">
        <path d="M16.1,28.714C14.633,28.714 13.433,27.527 13.433,26.077L13.433,25.725L10.323,25.725L10.323,25.813C10.323,27.879 11.433,29.813 13.256,30.78C17.389,32.934 21.878,29.901 21.878,25.945L21.878,25.725L18.767,25.725L18.767,25.945C18.811,27.395 17.7,28.626 16.233,28.67C16.189,28.714 16.144,28.714 16.1,28.714ZM24.989,16.45L17.433,16.495L17.433,13.857L24.989,13.813L24.989,16.45ZM14.411,13.725C13.833,12.231 12.322,11.308 10.678,11.308C10.675,11.308 10.673,11.308 10.67,11.308C8.455,11.308 6.632,13.131 6.632,15.346C6.632,15.377 6.632,15.409 6.633,15.44C6.678,17.505 8.456,19.22 10.544,19.308C13.344,19.396 15.522,16.626 14.411,13.725ZM10.633,16.538C9.93,16.541 9.349,15.967 9.344,15.264C9.344,14.473 10.056,13.857 10.856,13.989C11.389,14.077 11.789,14.516 11.878,15C11.899,15.093 11.91,15.187 11.91,15.282C11.91,15.971 11.343,16.538 10.654,16.538C10.647,16.538 10.64,16.538 10.633,16.538Z" style="fill:white;fill-rule:nonzero;"/>
    </g>
</svg>
